<mxfile host="app.diagrams.net" modified="2021-09-08T02:45:10.949Z" agent="5.0 (Windows NT 10.0; Win64; x64) AppleWebKit/537.36 (KHTML, like Gecko) Chrome/92.0.4515.159 Safari/537.36 OPR/78.0.4093.184" etag="zTtZhzqPeXtaZ6rFdE62" version="15.1.0" type="github" pages="5">
  <diagram id="O1MOnWxQBzCRhsTeA5Aj" name="Page-1">
    <mxGraphModel dx="1068" dy="452" grid="1" gridSize="10" guides="1" tooltips="1" connect="1" arrows="1" fold="1" page="1" pageScale="1" pageWidth="827" pageHeight="1169" math="0" shadow="0">
      <root>
        <mxCell id="0" />
        <mxCell id="1" parent="0" />
        <mxCell id="xH95TPTBvhSpc0_z8oq2-8" value="Asignatura" style="shape=umlLifeline;participant=umlEntity;perimeter=lifelinePerimeter;whiteSpace=wrap;html=1;container=1;collapsible=0;recursiveResize=0;verticalAlign=top;spacingTop=36;outlineConnect=0;" parent="1" vertex="1">
          <mxGeometry x="700" y="40" width="40" height="560" as="geometry" />
        </mxCell>
        <mxCell id="xH95TPTBvhSpc0_z8oq2-33" value="" style="html=1;points=[];perimeter=orthogonalPerimeter;" parent="xH95TPTBvhSpc0_z8oq2-8" vertex="1">
          <mxGeometry x="15" y="320" width="10" height="60" as="geometry" />
        </mxCell>
        <mxCell id="xH95TPTBvhSpc0_z8oq2-9" value="FormularioAsignatura" style="shape=umlLifeline;participant=umlBoundary;perimeter=lifelinePerimeter;whiteSpace=wrap;html=1;container=1;collapsible=0;recursiveResize=0;verticalAlign=top;spacingTop=36;outlineConnect=0;" parent="1" vertex="1">
          <mxGeometry x="360" y="40" width="50" height="560" as="geometry" />
        </mxCell>
        <mxCell id="xH95TPTBvhSpc0_z8oq2-10" value="ListaAsignatura" style="shape=umlLifeline;participant=umlBoundary;perimeter=lifelinePerimeter;whiteSpace=wrap;html=1;container=1;collapsible=0;recursiveResize=0;verticalAlign=top;spacingTop=36;outlineConnect=0;" parent="1" vertex="1">
          <mxGeometry x="230" y="40" width="50" height="560" as="geometry" />
        </mxCell>
        <mxCell id="xH95TPTBvhSpc0_z8oq2-19" value="" style="html=1;points=[];perimeter=orthogonalPerimeter;" parent="xH95TPTBvhSpc0_z8oq2-10" vertex="1">
          <mxGeometry x="20" y="100" width="10" height="40" as="geometry" />
        </mxCell>
        <mxCell id="xH95TPTBvhSpc0_z8oq2-39" value="" style="html=1;points=[];perimeter=orthogonalPerimeter;" parent="xH95TPTBvhSpc0_z8oq2-10" vertex="1">
          <mxGeometry x="20" y="420" width="10" height="40" as="geometry" />
        </mxCell>
        <mxCell id="xH95TPTBvhSpc0_z8oq2-40" value="actualizar Lista" style="edgeStyle=orthogonalEdgeStyle;html=1;align=left;spacingLeft=2;endArrow=block;rounded=0;entryX=1;entryY=0;" parent="xH95TPTBvhSpc0_z8oq2-10" target="xH95TPTBvhSpc0_z8oq2-39" edge="1">
          <mxGeometry relative="1" as="geometry">
            <mxPoint x="25" y="400" as="sourcePoint" />
            <Array as="points">
              <mxPoint x="55" y="400" />
            </Array>
          </mxGeometry>
        </mxCell>
        <mxCell id="xH95TPTBvhSpc0_z8oq2-11" value="Docente" style="shape=umlLifeline;participant=umlActor;perimeter=lifelinePerimeter;whiteSpace=wrap;html=1;container=1;collapsible=0;recursiveResize=0;verticalAlign=top;spacingTop=36;outlineConnect=0;" parent="1" vertex="1">
          <mxGeometry x="50" y="40" width="20" height="560" as="geometry" />
        </mxCell>
        <mxCell id="xH95TPTBvhSpc0_z8oq2-13" value="" style="html=1;points=[];perimeter=orthogonalPerimeter;" parent="xH95TPTBvhSpc0_z8oq2-11" vertex="1">
          <mxGeometry x="5" y="80" width="10" height="400" as="geometry" />
        </mxCell>
        <mxCell id="xH95TPTBvhSpc0_z8oq2-12" value="ControlInformación" style="shape=umlLifeline;participant=umlControl;perimeter=lifelinePerimeter;whiteSpace=wrap;html=1;container=1;collapsible=0;recursiveResize=0;verticalAlign=top;spacingTop=36;outlineConnect=0;" parent="1" vertex="1">
          <mxGeometry x="540" y="40" width="40" height="560" as="geometry" />
        </mxCell>
        <mxCell id="xH95TPTBvhSpc0_z8oq2-25" value="" style="html=1;points=[];perimeter=orthogonalPerimeter;" parent="xH95TPTBvhSpc0_z8oq2-12" vertex="1">
          <mxGeometry x="15" y="230" width="10" height="100" as="geometry" />
        </mxCell>
        <mxCell id="xH95TPTBvhSpc0_z8oq2-20" value="Seleccionar Botón &quot;NuevaAsignatura&quot;" style="html=1;verticalAlign=bottom;endArrow=block;exitX=1;exitY=0.056;exitDx=0;exitDy=0;exitPerimeter=0;" parent="1" source="xH95TPTBvhSpc0_z8oq2-13" target="xH95TPTBvhSpc0_z8oq2-10" edge="1">
          <mxGeometry width="80" relative="1" as="geometry">
            <mxPoint x="100" y="120" as="sourcePoint" />
            <mxPoint x="180" y="120" as="targetPoint" />
          </mxGeometry>
        </mxCell>
        <mxCell id="xH95TPTBvhSpc0_z8oq2-18" value="" style="html=1;points=[];perimeter=orthogonalPerimeter;" parent="1" vertex="1">
          <mxGeometry x="380" y="210" width="10" height="30" as="geometry" />
        </mxCell>
        <mxCell id="xH95TPTBvhSpc0_z8oq2-22" value="Presentar Formulario" style="html=1;verticalAlign=bottom;endArrow=block;exitX=-0.2;exitY=0.8;exitDx=0;exitDy=0;exitPerimeter=0;" parent="1" source="xH95TPTBvhSpc0_z8oq2-19" edge="1">
          <mxGeometry width="80" relative="1" as="geometry">
            <mxPoint x="220" y="180" as="sourcePoint" />
            <mxPoint x="68" y="170" as="targetPoint" />
          </mxGeometry>
        </mxCell>
        <mxCell id="xH95TPTBvhSpc0_z8oq2-23" value="Ingresar Datos" style="html=1;verticalAlign=bottom;endArrow=block;entryX=0;entryY=0;entryDx=0;entryDy=0;entryPerimeter=0;exitX=0.9;exitY=0.223;exitDx=0;exitDy=0;exitPerimeter=0;" parent="1" source="xH95TPTBvhSpc0_z8oq2-13" target="xH95TPTBvhSpc0_z8oq2-18" edge="1">
          <mxGeometry width="80" relative="1" as="geometry">
            <mxPoint x="70" y="210" as="sourcePoint" />
            <mxPoint x="350" y="210" as="targetPoint" />
          </mxGeometry>
        </mxCell>
        <mxCell id="xH95TPTBvhSpc0_z8oq2-24" value="envío de información&amp;nbsp;" style="html=1;verticalAlign=bottom;endArrow=block;entryX=0.5;entryY=0;entryDx=0;entryDy=0;entryPerimeter=0;" parent="1" target="xH95TPTBvhSpc0_z8oq2-25" edge="1">
          <mxGeometry width="80" relative="1" as="geometry">
            <mxPoint x="391" y="270" as="sourcePoint" />
            <mxPoint x="480" y="270" as="targetPoint" />
          </mxGeometry>
        </mxCell>
        <mxCell id="xH95TPTBvhSpc0_z8oq2-26" value="" style="html=1;points=[];perimeter=orthogonalPerimeter;" parent="1" vertex="1">
          <mxGeometry x="560" y="300" width="10" height="40" as="geometry" />
        </mxCell>
        <mxCell id="xH95TPTBvhSpc0_z8oq2-27" value="Validar datos" style="edgeStyle=orthogonalEdgeStyle;html=1;align=left;spacingLeft=2;endArrow=block;rounded=0;entryX=1;entryY=0;" parent="1" target="xH95TPTBvhSpc0_z8oq2-26" edge="1">
          <mxGeometry relative="1" as="geometry">
            <mxPoint x="565" y="280" as="sourcePoint" />
            <Array as="points">
              <mxPoint x="595" y="280" />
            </Array>
          </mxGeometry>
        </mxCell>
        <mxCell id="xH95TPTBvhSpc0_z8oq2-31" value="" style="html=1;points=[];perimeter=orthogonalPerimeter;" parent="1" vertex="1">
          <mxGeometry x="380" y="260" width="10" height="50" as="geometry" />
        </mxCell>
        <mxCell id="xH95TPTBvhSpc0_z8oq2-32" value="Presionar &quot;Guardar&quot;" style="html=1;verticalAlign=bottom;endArrow=block;entryX=0;entryY=0;entryDx=0;entryDy=0;entryPerimeter=0;exitX=1;exitY=0.244;exitDx=0;exitDy=0;exitPerimeter=0;" parent="1" edge="1">
          <mxGeometry width="80" relative="1" as="geometry">
            <mxPoint x="70" y="260" as="sourcePoint" />
            <mxPoint x="385" y="262.15999999999997" as="targetPoint" />
          </mxGeometry>
        </mxCell>
        <mxCell id="xH95TPTBvhSpc0_z8oq2-35" value="Registrar Datos" style="html=1;verticalAlign=bottom;endArrow=block;exitX=1;exitY=0.9;exitDx=0;exitDy=0;exitPerimeter=0;entryX=0.5;entryY=0;entryDx=0;entryDy=0;entryPerimeter=0;" parent="1" source="xH95TPTBvhSpc0_z8oq2-25" target="xH95TPTBvhSpc0_z8oq2-33" edge="1">
          <mxGeometry width="80" relative="1" as="geometry">
            <mxPoint x="580" y="360" as="sourcePoint" />
            <mxPoint x="660" y="360" as="targetPoint" />
          </mxGeometry>
        </mxCell>
        <mxCell id="xH95TPTBvhSpc0_z8oq2-36" value="confirmar registro" style="html=1;verticalAlign=bottom;endArrow=open;dashed=1;endSize=8;exitX=0;exitY=0.817;exitDx=0;exitDy=0;exitPerimeter=0;" parent="1" source="xH95TPTBvhSpc0_z8oq2-33" target="xH95TPTBvhSpc0_z8oq2-10" edge="1">
          <mxGeometry relative="1" as="geometry">
            <mxPoint x="700" y="420" as="sourcePoint" />
            <mxPoint x="420" y="408" as="targetPoint" />
          </mxGeometry>
        </mxCell>
        <mxCell id="xH95TPTBvhSpc0_z8oq2-42" value="Mostrar Asignatura registrada &lt;br&gt;y mensaje de confirmación&amp;nbsp;" style="html=1;verticalAlign=bottom;endArrow=open;dashed=1;endSize=8;exitX=-0.4;exitY=0.7;exitDx=0;exitDy=0;exitPerimeter=0;entryX=1.5;entryY=0.925;entryDx=0;entryDy=0;entryPerimeter=0;" parent="1" source="xH95TPTBvhSpc0_z8oq2-39" target="xH95TPTBvhSpc0_z8oq2-13" edge="1">
          <mxGeometry relative="1" as="geometry">
            <mxPoint x="190" y="490" as="sourcePoint" />
            <mxPoint x="110" y="490" as="targetPoint" />
          </mxGeometry>
        </mxCell>
      </root>
    </mxGraphModel>
  </diagram>
  <diagram id="gjQo7fiL8aJkNFbl3ipi" name="Page-2">
    <mxGraphModel dx="1256" dy="532" grid="1" gridSize="10" guides="1" tooltips="1" connect="1" arrows="1" fold="1" page="1" pageScale="1" pageWidth="827" pageHeight="1169" math="0" shadow="0">
      <root>
        <mxCell id="svX5haNyTEerBHDcNR1J-0" />
        <mxCell id="svX5haNyTEerBHDcNR1J-1" parent="svX5haNyTEerBHDcNR1J-0" />
        <mxCell id="svX5haNyTEerBHDcNR1J-2" value="Asignatura" style="shape=umlLifeline;participant=umlEntity;perimeter=lifelinePerimeter;whiteSpace=wrap;html=1;container=1;collapsible=0;recursiveResize=0;verticalAlign=top;spacingTop=36;outlineConnect=0;" parent="svX5haNyTEerBHDcNR1J-1" vertex="1">
          <mxGeometry x="700" y="40" width="40" height="560" as="geometry" />
        </mxCell>
        <mxCell id="d90c33GKGEhp9uXoyruF-3" value="" style="html=1;points=[];perimeter=orthogonalPerimeter;" vertex="1" parent="svX5haNyTEerBHDcNR1J-2">
          <mxGeometry x="15" y="190" width="10" height="60" as="geometry" />
        </mxCell>
        <mxCell id="svX5haNyTEerBHDcNR1J-4" value="FormularioParalelo" style="shape=umlLifeline;participant=umlBoundary;perimeter=lifelinePerimeter;whiteSpace=wrap;html=1;container=1;collapsible=0;recursiveResize=0;verticalAlign=top;spacingTop=36;outlineConnect=0;" parent="svX5haNyTEerBHDcNR1J-1" vertex="1">
          <mxGeometry x="360" y="40" width="50" height="560" as="geometry" />
        </mxCell>
        <mxCell id="svX5haNyTEerBHDcNR1J-5" value="ListaParalelo" style="shape=umlLifeline;participant=umlBoundary;perimeter=lifelinePerimeter;whiteSpace=wrap;html=1;container=1;collapsible=0;recursiveResize=0;verticalAlign=top;spacingTop=36;outlineConnect=0;" parent="svX5haNyTEerBHDcNR1J-1" vertex="1">
          <mxGeometry x="230" y="40" width="50" height="560" as="geometry" />
        </mxCell>
        <mxCell id="svX5haNyTEerBHDcNR1J-6" value="" style="html=1;points=[];perimeter=orthogonalPerimeter;" parent="svX5haNyTEerBHDcNR1J-5" vertex="1">
          <mxGeometry x="20" y="100" width="10" height="40" as="geometry" />
        </mxCell>
        <mxCell id="svX5haNyTEerBHDcNR1J-7" value="" style="html=1;points=[];perimeter=orthogonalPerimeter;" parent="svX5haNyTEerBHDcNR1J-5" vertex="1">
          <mxGeometry x="20" y="480" width="10" height="40" as="geometry" />
        </mxCell>
        <mxCell id="svX5haNyTEerBHDcNR1J-8" value="actualizar Lista" style="edgeStyle=orthogonalEdgeStyle;html=1;align=left;spacingLeft=2;endArrow=block;rounded=0;entryX=1;entryY=0;" parent="svX5haNyTEerBHDcNR1J-5" target="svX5haNyTEerBHDcNR1J-7" edge="1">
          <mxGeometry relative="1" as="geometry">
            <mxPoint x="25" y="460" as="sourcePoint" />
            <Array as="points">
              <mxPoint x="55" y="460" />
            </Array>
          </mxGeometry>
        </mxCell>
        <mxCell id="svX5haNyTEerBHDcNR1J-9" value="Docente" style="shape=umlLifeline;participant=umlActor;perimeter=lifelinePerimeter;whiteSpace=wrap;html=1;container=1;collapsible=0;recursiveResize=0;verticalAlign=top;spacingTop=36;outlineConnect=0;" parent="svX5haNyTEerBHDcNR1J-1" vertex="1">
          <mxGeometry x="50" y="40" width="20" height="560" as="geometry" />
        </mxCell>
        <mxCell id="svX5haNyTEerBHDcNR1J-10" value="" style="html=1;points=[];perimeter=orthogonalPerimeter;" parent="svX5haNyTEerBHDcNR1J-9" vertex="1">
          <mxGeometry x="5" y="80" width="10" height="470" as="geometry" />
        </mxCell>
        <mxCell id="svX5haNyTEerBHDcNR1J-11" value="ControlInformación" style="shape=umlLifeline;participant=umlControl;perimeter=lifelinePerimeter;whiteSpace=wrap;html=1;container=1;collapsible=0;recursiveResize=0;verticalAlign=top;spacingTop=36;outlineConnect=0;" parent="svX5haNyTEerBHDcNR1J-1" vertex="1">
          <mxGeometry x="540" y="40" width="40" height="560" as="geometry" />
        </mxCell>
        <mxCell id="svX5haNyTEerBHDcNR1J-12" value="" style="html=1;points=[];perimeter=orthogonalPerimeter;" parent="svX5haNyTEerBHDcNR1J-11" vertex="1">
          <mxGeometry x="15" y="290" width="10" height="100" as="geometry" />
        </mxCell>
        <mxCell id="svX5haNyTEerBHDcNR1J-13" value="Seleccionar Botón &lt;br&gt;&quot;Nuevo Paralelo&quot;" style="html=1;verticalAlign=bottom;endArrow=block;exitX=1.04;exitY=0.043;exitDx=0;exitDy=0;exitPerimeter=0;entryX=-0.1;entryY=-0.005;entryDx=0;entryDy=0;entryPerimeter=0;" parent="svX5haNyTEerBHDcNR1J-1" source="svX5haNyTEerBHDcNR1J-10" target="svX5haNyTEerBHDcNR1J-6" edge="1">
          <mxGeometry width="80" relative="1" as="geometry">
            <mxPoint x="100" y="120" as="sourcePoint" />
            <mxPoint x="180" y="120" as="targetPoint" />
          </mxGeometry>
        </mxCell>
        <mxCell id="svX5haNyTEerBHDcNR1J-14" value="" style="html=1;points=[];perimeter=orthogonalPerimeter;" parent="svX5haNyTEerBHDcNR1J-1" vertex="1">
          <mxGeometry x="380" y="210" width="10" height="90" as="geometry" />
        </mxCell>
        <mxCell id="svX5haNyTEerBHDcNR1J-15" value="Presentar Formulario" style="html=1;verticalAlign=bottom;endArrow=block;exitX=0.06;exitY=0.985;exitDx=0;exitDy=0;exitPerimeter=0;entryX=1.5;entryY=0.128;entryDx=0;entryDy=0;entryPerimeter=0;" parent="svX5haNyTEerBHDcNR1J-1" source="svX5haNyTEerBHDcNR1J-6" edge="1" target="svX5haNyTEerBHDcNR1J-10">
          <mxGeometry width="80" relative="1" as="geometry">
            <mxPoint x="220" y="180" as="sourcePoint" />
            <mxPoint x="80" y="180" as="targetPoint" />
          </mxGeometry>
        </mxCell>
        <mxCell id="svX5haNyTEerBHDcNR1J-16" value="Ingresar Datos" style="html=1;verticalAlign=bottom;endArrow=block;entryX=0;entryY=0;entryDx=0;entryDy=0;entryPerimeter=0;exitX=1.1;exitY=0.196;exitDx=0;exitDy=0;exitPerimeter=0;" parent="svX5haNyTEerBHDcNR1J-1" source="svX5haNyTEerBHDcNR1J-10" target="svX5haNyTEerBHDcNR1J-14" edge="1">
          <mxGeometry width="80" relative="1" as="geometry">
            <mxPoint x="70" y="210" as="sourcePoint" />
            <mxPoint x="350" y="210" as="targetPoint" />
          </mxGeometry>
        </mxCell>
        <mxCell id="svX5haNyTEerBHDcNR1J-17" value="envío de información&amp;nbsp;" style="html=1;verticalAlign=bottom;endArrow=block;entryX=0.5;entryY=0;entryDx=0;entryDy=0;entryPerimeter=0;exitX=1.06;exitY=0.372;exitDx=0;exitDy=0;exitPerimeter=0;" parent="svX5haNyTEerBHDcNR1J-1" target="svX5haNyTEerBHDcNR1J-12" edge="1" source="svX5haNyTEerBHDcNR1J-20">
          <mxGeometry width="80" relative="1" as="geometry">
            <mxPoint x="391" y="270" as="sourcePoint" />
            <mxPoint x="480" y="270" as="targetPoint" />
          </mxGeometry>
        </mxCell>
        <mxCell id="svX5haNyTEerBHDcNR1J-18" value="" style="html=1;points=[];perimeter=orthogonalPerimeter;" parent="svX5haNyTEerBHDcNR1J-1" vertex="1">
          <mxGeometry x="560" y="360" width="10" height="40" as="geometry" />
        </mxCell>
        <mxCell id="svX5haNyTEerBHDcNR1J-19" value="Validar datos" style="edgeStyle=orthogonalEdgeStyle;html=1;align=left;spacingLeft=2;endArrow=block;rounded=0;entryX=1;entryY=0;" parent="svX5haNyTEerBHDcNR1J-1" target="svX5haNyTEerBHDcNR1J-18" edge="1">
          <mxGeometry relative="1" as="geometry">
            <mxPoint x="565" y="340" as="sourcePoint" />
            <Array as="points">
              <mxPoint x="595" y="340" />
            </Array>
          </mxGeometry>
        </mxCell>
        <mxCell id="svX5haNyTEerBHDcNR1J-20" value="" style="html=1;points=[];perimeter=orthogonalPerimeter;" parent="svX5haNyTEerBHDcNR1J-1" vertex="1">
          <mxGeometry x="380" y="310" width="10" height="50" as="geometry" />
        </mxCell>
        <mxCell id="svX5haNyTEerBHDcNR1J-21" value="Presionar &quot;Guardar&quot;" style="html=1;verticalAlign=bottom;endArrow=block;exitX=0.96;exitY=0.404;exitDx=0;exitDy=0;exitPerimeter=0;entryX=-0.1;entryY=0.004;entryDx=0;entryDy=0;entryPerimeter=0;" parent="svX5haNyTEerBHDcNR1J-1" edge="1" target="svX5haNyTEerBHDcNR1J-20" source="svX5haNyTEerBHDcNR1J-10">
          <mxGeometry width="80" relative="1" as="geometry">
            <mxPoint x="70" y="310" as="sourcePoint" />
            <mxPoint x="385" y="312.15999999999997" as="targetPoint" />
          </mxGeometry>
        </mxCell>
        <mxCell id="svX5haNyTEerBHDcNR1J-22" value="Registrar Datos" style="html=1;verticalAlign=bottom;endArrow=block;exitX=1;exitY=0.9;exitDx=0;exitDy=0;exitPerimeter=0;entryX=0.04;entryY=-0.003;entryDx=0;entryDy=0;entryPerimeter=0;" parent="svX5haNyTEerBHDcNR1J-1" source="svX5haNyTEerBHDcNR1J-12" target="d90c33GKGEhp9uXoyruF-8" edge="1">
          <mxGeometry width="80" relative="1" as="geometry">
            <mxPoint x="580" y="360" as="sourcePoint" />
            <mxPoint x="830" y="420" as="targetPoint" />
          </mxGeometry>
        </mxCell>
        <mxCell id="svX5haNyTEerBHDcNR1J-23" value="confirmar registro" style="html=1;verticalAlign=bottom;endArrow=open;dashed=1;endSize=8;exitX=-0.08;exitY=0.81;exitDx=0;exitDy=0;exitPerimeter=0;" parent="svX5haNyTEerBHDcNR1J-1" source="d90c33GKGEhp9uXoyruF-8" target="svX5haNyTEerBHDcNR1J-5" edge="1">
          <mxGeometry relative="1" as="geometry">
            <mxPoint x="715" y="469.02" as="sourcePoint" />
            <mxPoint x="420" y="408" as="targetPoint" />
          </mxGeometry>
        </mxCell>
        <mxCell id="svX5haNyTEerBHDcNR1J-24" value="Mostrar Paralelo registrada &lt;br&gt;y mensaje de confirmación&amp;nbsp;" style="html=1;verticalAlign=bottom;endArrow=open;dashed=1;endSize=8;entryX=0.96;entryY=0.909;entryDx=0;entryDy=0;entryPerimeter=0;exitX=0;exitY=0.681;exitDx=0;exitDy=0;exitPerimeter=0;" parent="svX5haNyTEerBHDcNR1J-1" source="svX5haNyTEerBHDcNR1J-7" target="svX5haNyTEerBHDcNR1J-10" edge="1">
          <mxGeometry relative="1" as="geometry">
            <mxPoint x="240" y="547" as="sourcePoint" />
            <mxPoint x="70" y="548" as="targetPoint" />
          </mxGeometry>
        </mxCell>
        <mxCell id="d90c33GKGEhp9uXoyruF-0" value="Solicitar información" style="html=1;verticalAlign=bottom;endArrow=block;exitX=0.94;exitY=0.073;exitDx=0;exitDy=0;exitPerimeter=0;entryX=-0.08;entryY=0.023;entryDx=0;entryDy=0;entryPerimeter=0;" edge="1" parent="svX5haNyTEerBHDcNR1J-1" source="svX5haNyTEerBHDcNR1J-14" target="d90c33GKGEhp9uXoyruF-1">
          <mxGeometry width="80" relative="1" as="geometry">
            <mxPoint x="410" y="210" as="sourcePoint" />
            <mxPoint x="530" y="219" as="targetPoint" />
          </mxGeometry>
        </mxCell>
        <mxCell id="d90c33GKGEhp9uXoyruF-1" value="" style="html=1;points=[];perimeter=orthogonalPerimeter;" vertex="1" parent="svX5haNyTEerBHDcNR1J-1">
          <mxGeometry x="555" y="215" width="10" height="35" as="geometry" />
        </mxCell>
        <mxCell id="d90c33GKGEhp9uXoyruF-2" value="Consultar Asignaturas" style="html=1;verticalAlign=bottom;endArrow=block;exitX=1;exitY=0.4;exitDx=0;exitDy=0;exitPerimeter=0;entryX=0;entryY=-0.01;entryDx=0;entryDy=0;entryPerimeter=0;" edge="1" parent="svX5haNyTEerBHDcNR1J-1" source="d90c33GKGEhp9uXoyruF-1" target="d90c33GKGEhp9uXoyruF-3">
          <mxGeometry width="80" relative="1" as="geometry">
            <mxPoint x="580" y="220" as="sourcePoint" />
            <mxPoint x="710" y="233" as="targetPoint" />
          </mxGeometry>
        </mxCell>
        <mxCell id="d90c33GKGEhp9uXoyruF-4" value="Asignaturas encontradas" style="html=1;verticalAlign=bottom;endArrow=open;dashed=1;endSize=8;exitX=0.1;exitY=0.8;exitDx=0;exitDy=0;exitPerimeter=0;" edge="1" parent="svX5haNyTEerBHDcNR1J-1" source="d90c33GKGEhp9uXoyruF-3" target="svX5haNyTEerBHDcNR1J-11">
          <mxGeometry relative="1" as="geometry">
            <mxPoint x="710" y="250" as="sourcePoint" />
            <mxPoint x="573" y="247.995" as="targetPoint" />
          </mxGeometry>
        </mxCell>
        <mxCell id="d90c33GKGEhp9uXoyruF-6" value="Asignaturas encontradas" style="html=1;verticalAlign=bottom;endArrow=open;dashed=1;endSize=8;exitX=0.1;exitY=0.8;exitDx=0;exitDy=0;exitPerimeter=0;entryX=1.14;entryY=0.882;entryDx=0;entryDy=0;entryPerimeter=0;" edge="1" parent="svX5haNyTEerBHDcNR1J-1" target="svX5haNyTEerBHDcNR1J-14">
          <mxGeometry relative="1" as="geometry">
            <mxPoint x="560" y="290" as="sourcePoint" />
            <mxPoint x="400" y="290" as="targetPoint" />
          </mxGeometry>
        </mxCell>
        <mxCell id="d90c33GKGEhp9uXoyruF-7" value="Paralelo" style="shape=umlLifeline;participant=umlEntity;perimeter=lifelinePerimeter;whiteSpace=wrap;html=1;container=1;collapsible=0;recursiveResize=0;verticalAlign=top;spacingTop=36;outlineConnect=0;" vertex="1" parent="svX5haNyTEerBHDcNR1J-1">
          <mxGeometry x="820" y="40" width="40" height="560" as="geometry" />
        </mxCell>
        <mxCell id="d90c33GKGEhp9uXoyruF-8" value="" style="html=1;points=[];perimeter=orthogonalPerimeter;" vertex="1" parent="d90c33GKGEhp9uXoyruF-7">
          <mxGeometry x="15" y="380" width="10" height="60" as="geometry" />
        </mxCell>
      </root>
    </mxGraphModel>
  </diagram>
  <diagram id="_HX7C-_-xrdocrziK9E9" name="Page-3">
    <mxGraphModel dx="1526" dy="646" grid="1" gridSize="10" guides="1" tooltips="1" connect="1" arrows="1" fold="1" page="1" pageScale="1" pageWidth="827" pageHeight="1169" math="0" shadow="0">
      <root>
        <mxCell id="fN1Aq6jOpkyJkZBDEy37-0" />
        <mxCell id="fN1Aq6jOpkyJkZBDEy37-1" parent="fN1Aq6jOpkyJkZBDEy37-0" />
        <mxCell id="fN1Aq6jOpkyJkZBDEy37-2" value="Docente" style="shape=umlLifeline;participant=umlActor;perimeter=lifelinePerimeter;whiteSpace=wrap;html=1;container=1;collapsible=0;recursiveResize=0;verticalAlign=top;spacingTop=36;outlineConnect=0;" vertex="1" parent="fN1Aq6jOpkyJkZBDEy37-1">
          <mxGeometry x="40" y="40" width="20" height="600" as="geometry" />
        </mxCell>
        <mxCell id="fN1Aq6jOpkyJkZBDEy37-3" value="ListaParalelo" style="shape=umlLifeline;participant=umlBoundary;perimeter=lifelinePerimeter;whiteSpace=wrap;html=1;container=1;collapsible=0;recursiveResize=0;verticalAlign=top;spacingTop=36;outlineConnect=0;" vertex="1" parent="fN1Aq6jOpkyJkZBDEy37-1">
          <mxGeometry x="200" y="40" width="50" height="600" as="geometry" />
        </mxCell>
        <mxCell id="fN1Aq6jOpkyJkZBDEy37-8" value="" style="html=1;points=[];perimeter=orthogonalPerimeter;" vertex="1" parent="fN1Aq6jOpkyJkZBDEy37-3">
          <mxGeometry x="20" y="90" width="10" height="30" as="geometry" />
        </mxCell>
        <mxCell id="fN1Aq6jOpkyJkZBDEy37-5" value="InformaciónControl" style="shape=umlLifeline;participant=umlControl;perimeter=lifelinePerimeter;whiteSpace=wrap;html=1;container=1;collapsible=0;recursiveResize=0;verticalAlign=top;spacingTop=36;outlineConnect=0;" vertex="1" parent="fN1Aq6jOpkyJkZBDEy37-1">
          <mxGeometry x="350" y="40" width="40" height="600" as="geometry" />
        </mxCell>
        <mxCell id="fN1Aq6jOpkyJkZBDEy37-11" value="" style="html=1;points=[];perimeter=orthogonalPerimeter;" vertex="1" parent="fN1Aq6jOpkyJkZBDEy37-5">
          <mxGeometry x="15" y="100" width="10" height="80" as="geometry" />
        </mxCell>
        <mxCell id="fN1Aq6jOpkyJkZBDEy37-33" value="" style="html=1;points=[];perimeter=orthogonalPerimeter;" vertex="1" parent="fN1Aq6jOpkyJkZBDEy37-5">
          <mxGeometry x="15" y="470" width="10" height="60" as="geometry" />
        </mxCell>
        <mxCell id="fN1Aq6jOpkyJkZBDEy37-6" value="Paralelo" style="shape=umlLifeline;participant=umlEntity;perimeter=lifelinePerimeter;whiteSpace=wrap;html=1;container=1;collapsible=0;recursiveResize=0;verticalAlign=top;spacingTop=36;outlineConnect=0;" vertex="1" parent="fN1Aq6jOpkyJkZBDEy37-1">
          <mxGeometry x="600" y="40" width="40" height="600" as="geometry" />
        </mxCell>
        <mxCell id="fN1Aq6jOpkyJkZBDEy37-14" value="" style="html=1;points=[];perimeter=orthogonalPerimeter;" vertex="1" parent="fN1Aq6jOpkyJkZBDEy37-6">
          <mxGeometry x="15" y="120" width="10" height="110" as="geometry" />
        </mxCell>
        <mxCell id="fN1Aq6jOpkyJkZBDEy37-35" value="" style="html=1;points=[];perimeter=orthogonalPerimeter;" vertex="1" parent="fN1Aq6jOpkyJkZBDEy37-6">
          <mxGeometry x="15" y="520" width="10" height="50" as="geometry" />
        </mxCell>
        <mxCell id="fN1Aq6jOpkyJkZBDEy37-7" value="" style="html=1;points=[];perimeter=orthogonalPerimeter;" vertex="1" parent="fN1Aq6jOpkyJkZBDEy37-1">
          <mxGeometry x="45" y="120" width="10" height="380" as="geometry" />
        </mxCell>
        <mxCell id="fN1Aq6jOpkyJkZBDEy37-9" value="Seleccionar Paralelo" style="html=1;verticalAlign=bottom;endArrow=block;exitX=1.041;exitY=0.026;exitDx=0;exitDy=0;exitPerimeter=0;entryX=-0.14;entryY=-0.012;entryDx=0;entryDy=0;entryPerimeter=0;" edge="1" parent="fN1Aq6jOpkyJkZBDEy37-1" source="fN1Aq6jOpkyJkZBDEy37-7" target="fN1Aq6jOpkyJkZBDEy37-8">
          <mxGeometry width="80" relative="1" as="geometry">
            <mxPoint x="100" y="140" as="sourcePoint" />
            <mxPoint x="180" y="140" as="targetPoint" />
          </mxGeometry>
        </mxCell>
        <mxCell id="fN1Aq6jOpkyJkZBDEy37-10" value="Solicitar Paralelo" style="html=1;verticalAlign=bottom;endArrow=block;exitX=1.133;exitY=0.333;exitDx=0;exitDy=0;exitPerimeter=0;entryX=0;entryY=0;entryDx=0;entryDy=0;entryPerimeter=0;" edge="1" parent="fN1Aq6jOpkyJkZBDEy37-1" source="fN1Aq6jOpkyJkZBDEy37-8" target="fN1Aq6jOpkyJkZBDEy37-11">
          <mxGeometry width="80" relative="1" as="geometry">
            <mxPoint x="240" y="140" as="sourcePoint" />
            <mxPoint x="350" y="140" as="targetPoint" />
          </mxGeometry>
        </mxCell>
        <mxCell id="fN1Aq6jOpkyJkZBDEy37-13" value="Solicitar Paralelo" style="html=1;verticalAlign=bottom;endArrow=block;exitX=0.967;exitY=0.246;exitDx=0;exitDy=0;exitPerimeter=0;entryX=-0.1;entryY=0;entryDx=0;entryDy=0;entryPerimeter=0;" edge="1" parent="fN1Aq6jOpkyJkZBDEy37-1" source="fN1Aq6jOpkyJkZBDEy37-11" target="fN1Aq6jOpkyJkZBDEy37-14">
          <mxGeometry width="80" relative="1" as="geometry">
            <mxPoint x="380" y="160" as="sourcePoint" />
            <mxPoint x="460" y="160" as="targetPoint" />
          </mxGeometry>
        </mxCell>
        <mxCell id="fN1Aq6jOpkyJkZBDEy37-15" value="" style="html=1;points=[];perimeter=orthogonalPerimeter;" vertex="1" parent="fN1Aq6jOpkyJkZBDEy37-1">
          <mxGeometry x="620" y="200" width="10" height="30" as="geometry" />
        </mxCell>
        <mxCell id="fN1Aq6jOpkyJkZBDEy37-16" value="Buscar &lt;br&gt;Paralelo" style="edgeStyle=orthogonalEdgeStyle;html=1;align=left;spacingLeft=2;endArrow=block;rounded=0;entryX=1;entryY=0;" edge="1" target="fN1Aq6jOpkyJkZBDEy37-15" parent="fN1Aq6jOpkyJkZBDEy37-1">
          <mxGeometry relative="1" as="geometry">
            <mxPoint x="625" y="180" as="sourcePoint" />
            <Array as="points">
              <mxPoint x="655" y="180" />
            </Array>
          </mxGeometry>
        </mxCell>
        <mxCell id="fN1Aq6jOpkyJkZBDEy37-17" value="Paralelo Encontrado" style="html=1;verticalAlign=bottom;endArrow=open;dashed=1;endSize=8;exitX=-0.033;exitY=0.909;exitDx=0;exitDy=0;exitPerimeter=0;entryX=0.748;entryY=-0.003;entryDx=0;entryDy=0;entryPerimeter=0;" edge="1" parent="fN1Aq6jOpkyJkZBDEy37-1" source="fN1Aq6jOpkyJkZBDEy37-14" target="fN1Aq6jOpkyJkZBDEy37-20">
          <mxGeometry relative="1" as="geometry">
            <mxPoint x="490" y="260" as="sourcePoint" />
            <mxPoint x="505" y="260.24" as="targetPoint" />
          </mxGeometry>
        </mxCell>
        <mxCell id="fN1Aq6jOpkyJkZBDEy37-19" value="FormularioParalelo" style="shape=umlLifeline;participant=umlBoundary;perimeter=lifelinePerimeter;whiteSpace=wrap;html=1;container=1;collapsible=0;recursiveResize=0;verticalAlign=top;spacingTop=36;outlineConnect=0;" vertex="1" parent="fN1Aq6jOpkyJkZBDEy37-1">
          <mxGeometry x="470" y="40" width="50" height="600" as="geometry" />
        </mxCell>
        <mxCell id="fN1Aq6jOpkyJkZBDEy37-20" value="" style="html=1;points=[];perimeter=orthogonalPerimeter;" vertex="1" parent="fN1Aq6jOpkyJkZBDEy37-19">
          <mxGeometry x="20" y="220" width="10" height="270" as="geometry" />
        </mxCell>
        <mxCell id="fN1Aq6jOpkyJkZBDEy37-21" value="Seleccionar Horario" style="html=1;verticalAlign=bottom;endArrow=block;entryX=-0.2;entryY=0.078;entryDx=0;entryDy=0;entryPerimeter=0;exitX=1.1;exitY=0.421;exitDx=0;exitDy=0;exitPerimeter=0;" edge="1" parent="fN1Aq6jOpkyJkZBDEy37-1" source="fN1Aq6jOpkyJkZBDEy37-7" target="fN1Aq6jOpkyJkZBDEy37-20">
          <mxGeometry width="80" relative="1" as="geometry">
            <mxPoint x="70" y="281" as="sourcePoint" />
            <mxPoint x="140" y="280" as="targetPoint" />
          </mxGeometry>
        </mxCell>
        <mxCell id="fN1Aq6jOpkyJkZBDEy37-22" value="Horario" style="shape=umlLifeline;participant=umlEntity;perimeter=lifelinePerimeter;whiteSpace=wrap;html=1;container=1;collapsible=0;recursiveResize=0;verticalAlign=top;spacingTop=36;outlineConnect=0;" vertex="1" parent="fN1Aq6jOpkyJkZBDEy37-1">
          <mxGeometry x="840" y="40" width="40" height="550" as="geometry" />
        </mxCell>
        <mxCell id="fN1Aq6jOpkyJkZBDEy37-23" value="" style="html=1;points=[];perimeter=orthogonalPerimeter;" vertex="1" parent="fN1Aq6jOpkyJkZBDEy37-22">
          <mxGeometry x="15" y="320" width="10" height="110" as="geometry" />
        </mxCell>
        <mxCell id="fN1Aq6jOpkyJkZBDEy37-28" value="" style="html=1;points=[];perimeter=orthogonalPerimeter;" vertex="1" parent="fN1Aq6jOpkyJkZBDEy37-22">
          <mxGeometry x="20" y="380" width="10" height="40" as="geometry" />
        </mxCell>
        <mxCell id="fN1Aq6jOpkyJkZBDEy37-29" value="Buscar&lt;br&gt;Horario" style="edgeStyle=orthogonalEdgeStyle;html=1;align=left;spacingLeft=2;endArrow=block;rounded=0;entryX=1;entryY=0;" edge="1" target="fN1Aq6jOpkyJkZBDEy37-28" parent="fN1Aq6jOpkyJkZBDEy37-22">
          <mxGeometry relative="1" as="geometry">
            <mxPoint x="25" y="360" as="sourcePoint" />
            <Array as="points">
              <mxPoint x="55" y="360" />
            </Array>
          </mxGeometry>
        </mxCell>
        <mxCell id="fN1Aq6jOpkyJkZBDEy37-24" value="ControlHorario" style="shape=umlLifeline;participant=umlControl;perimeter=lifelinePerimeter;whiteSpace=wrap;html=1;container=1;collapsible=0;recursiveResize=0;verticalAlign=top;spacingTop=36;outlineConnect=0;" vertex="1" parent="fN1Aq6jOpkyJkZBDEy37-1">
          <mxGeometry x="720" y="40" width="40" height="600" as="geometry" />
        </mxCell>
        <mxCell id="fN1Aq6jOpkyJkZBDEy37-25" value="" style="html=1;points=[];perimeter=orthogonalPerimeter;" vertex="1" parent="fN1Aq6jOpkyJkZBDEy37-24">
          <mxGeometry x="15" y="270" width="10" height="80" as="geometry" />
        </mxCell>
        <mxCell id="fN1Aq6jOpkyJkZBDEy37-26" value="Horario seleccionado" style="html=1;verticalAlign=bottom;endArrow=block;entryX=0.041;entryY=0.001;entryDx=0;entryDy=0;entryPerimeter=0;exitX=1.243;exitY=0.183;exitDx=0;exitDy=0;exitPerimeter=0;" edge="1" parent="fN1Aq6jOpkyJkZBDEy37-1" source="fN1Aq6jOpkyJkZBDEy37-20" target="fN1Aq6jOpkyJkZBDEy37-25">
          <mxGeometry width="80" relative="1" as="geometry">
            <mxPoint x="520" y="310" as="sourcePoint" />
            <mxPoint x="600" y="310" as="targetPoint" />
          </mxGeometry>
        </mxCell>
        <mxCell id="fN1Aq6jOpkyJkZBDEy37-27" value="Consultar horario" style="html=1;verticalAlign=bottom;endArrow=block;exitX=1.5;exitY=0.625;exitDx=0;exitDy=0;exitPerimeter=0;entryX=-0.114;entryY=-0.002;entryDx=0;entryDy=0;entryPerimeter=0;" edge="1" parent="fN1Aq6jOpkyJkZBDEy37-1" source="fN1Aq6jOpkyJkZBDEy37-25" target="fN1Aq6jOpkyJkZBDEy37-23">
          <mxGeometry width="80" relative="1" as="geometry">
            <mxPoint x="760" y="360" as="sourcePoint" />
            <mxPoint x="840" y="360" as="targetPoint" />
          </mxGeometry>
        </mxCell>
        <mxCell id="fN1Aq6jOpkyJkZBDEy37-30" value="Horario encontrado" style="html=1;verticalAlign=bottom;endArrow=open;dashed=1;endSize=8;exitX=-0.21;exitY=0.898;exitDx=0;exitDy=0;exitPerimeter=0;" edge="1" parent="fN1Aq6jOpkyJkZBDEy37-1" source="fN1Aq6jOpkyJkZBDEy37-23" target="fN1Aq6jOpkyJkZBDEy37-24">
          <mxGeometry relative="1" as="geometry">
            <mxPoint x="820" y="470" as="sourcePoint" />
            <mxPoint x="700" y="470" as="targetPoint" />
          </mxGeometry>
        </mxCell>
        <mxCell id="fN1Aq6jOpkyJkZBDEy37-31" value="Horario encontrado" style="html=1;verticalAlign=bottom;endArrow=open;dashed=1;endSize=8;entryX=1.005;entryY=0.816;entryDx=0;entryDy=0;entryPerimeter=0;" edge="1" parent="fN1Aq6jOpkyJkZBDEy37-1" source="fN1Aq6jOpkyJkZBDEy37-24" target="fN1Aq6jOpkyJkZBDEy37-20">
          <mxGeometry relative="1" as="geometry">
            <mxPoint x="732.8800000000001" y="468.78" as="sourcePoint" />
            <mxPoint x="620.0038095238097" y="468.78" as="targetPoint" />
          </mxGeometry>
        </mxCell>
        <mxCell id="fN1Aq6jOpkyJkZBDEy37-32" value="actualizar Paralelo" style="html=1;verticalAlign=bottom;endArrow=block;exitX=-0.233;exitY=0.92;exitDx=0;exitDy=0;exitPerimeter=0;entryX=1.076;entryY=-0.004;entryDx=0;entryDy=0;entryPerimeter=0;" edge="1" parent="fN1Aq6jOpkyJkZBDEy37-1" source="fN1Aq6jOpkyJkZBDEy37-20" target="fN1Aq6jOpkyJkZBDEy37-33">
          <mxGeometry width="80" relative="1" as="geometry">
            <mxPoint x="480" y="510" as="sourcePoint" />
            <mxPoint x="400" y="520" as="targetPoint" />
          </mxGeometry>
        </mxCell>
        <mxCell id="fN1Aq6jOpkyJkZBDEy37-36" value="actualizar Paralelo" style="html=1;verticalAlign=bottom;endArrow=block;exitX=0.886;exitY=0.837;exitDx=0;exitDy=0;exitPerimeter=0;entryX=0.5;entryY=0;entryDx=0;entryDy=0;entryPerimeter=0;" edge="1" parent="fN1Aq6jOpkyJkZBDEy37-1" source="fN1Aq6jOpkyJkZBDEy37-33" target="fN1Aq6jOpkyJkZBDEy37-35">
          <mxGeometry width="80" relative="1" as="geometry">
            <mxPoint x="420" y="560" as="sourcePoint" />
            <mxPoint x="500" y="560" as="targetPoint" />
          </mxGeometry>
        </mxCell>
        <mxCell id="fN1Aq6jOpkyJkZBDEy37-37" value="Paralelo actualizado" style="html=1;verticalAlign=bottom;endArrow=open;dashed=1;endSize=8;exitX=-0.162;exitY=0.795;exitDx=0;exitDy=0;exitPerimeter=0;" edge="1" parent="fN1Aq6jOpkyJkZBDEy37-1" source="fN1Aq6jOpkyJkZBDEy37-35" target="fN1Aq6jOpkyJkZBDEy37-5">
          <mxGeometry relative="1" as="geometry">
            <mxPoint x="550" y="640" as="sourcePoint" />
            <mxPoint x="470" y="640" as="targetPoint" />
          </mxGeometry>
        </mxCell>
        <mxCell id="fN1Aq6jOpkyJkZBDEy37-38" value="Paralelo actualizado" style="html=1;verticalAlign=bottom;endArrow=open;dashed=1;endSize=8;entryX=0.496;entryY=0.965;entryDx=0;entryDy=0;entryPerimeter=0;" edge="1" parent="fN1Aq6jOpkyJkZBDEy37-1" source="fN1Aq6jOpkyJkZBDEy37-5" target="fN1Aq6jOpkyJkZBDEy37-3">
          <mxGeometry relative="1" as="geometry">
            <mxPoint x="350" y="620" as="sourcePoint" />
            <mxPoint x="270" y="620" as="targetPoint" />
          </mxGeometry>
        </mxCell>
      </root>
    </mxGraphModel>
  </diagram>
  <diagram id="XAGoGTB4o4hMn_OQvqfC" name="Page-4">
    <mxGraphModel dx="1068" dy="452" grid="1" gridSize="10" guides="1" tooltips="1" connect="1" arrows="1" fold="1" page="1" pageScale="1" pageWidth="827" pageHeight="1169" math="0" shadow="0">
      <root>
        <mxCell id="nJ53OVy1p7nozCU9UD81-0" />
        <mxCell id="nJ53OVy1p7nozCU9UD81-1" parent="nJ53OVy1p7nozCU9UD81-0" />
        <mxCell id="AAiMZ7HsClvzDmgo-bh8-0" value="Docente" style="shape=umlLifeline;participant=umlActor;perimeter=lifelinePerimeter;whiteSpace=wrap;html=1;container=1;collapsible=0;recursiveResize=0;verticalAlign=top;spacingTop=36;outlineConnect=0;" vertex="1" parent="nJ53OVy1p7nozCU9UD81-1">
          <mxGeometry x="79" y="40" width="20" height="600" as="geometry" />
        </mxCell>
        <mxCell id="AAiMZ7HsClvzDmgo-bh8-1" value="ListaParalelo" style="shape=umlLifeline;participant=umlBoundary;perimeter=lifelinePerimeter;whiteSpace=wrap;html=1;container=1;collapsible=0;recursiveResize=0;verticalAlign=top;spacingTop=36;outlineConnect=0;" vertex="1" parent="nJ53OVy1p7nozCU9UD81-1">
          <mxGeometry x="239" y="40" width="50" height="600" as="geometry" />
        </mxCell>
        <mxCell id="AAiMZ7HsClvzDmgo-bh8-2" value="" style="html=1;points=[];perimeter=orthogonalPerimeter;" vertex="1" parent="AAiMZ7HsClvzDmgo-bh8-1">
          <mxGeometry x="20" y="90" width="10" height="30" as="geometry" />
        </mxCell>
        <mxCell id="E0xAuFwcv_X-9KTTe3tG-2" value="" style="html=1;points=[];perimeter=orthogonalPerimeter;" vertex="1" parent="AAiMZ7HsClvzDmgo-bh8-1">
          <mxGeometry x="20" y="460" width="10" height="80" as="geometry" />
        </mxCell>
        <mxCell id="E0xAuFwcv_X-9KTTe3tG-4" value="" style="html=1;points=[];perimeter=orthogonalPerimeter;" vertex="1" parent="AAiMZ7HsClvzDmgo-bh8-1">
          <mxGeometry x="25" y="500" width="10" height="10" as="geometry" />
        </mxCell>
        <mxCell id="E0xAuFwcv_X-9KTTe3tG-5" value="actualizar&lt;br&gt;lista" style="edgeStyle=orthogonalEdgeStyle;html=1;align=left;spacingLeft=2;endArrow=block;rounded=0;entryX=1;entryY=0;" edge="1" target="E0xAuFwcv_X-9KTTe3tG-4" parent="AAiMZ7HsClvzDmgo-bh8-1">
          <mxGeometry relative="1" as="geometry">
            <mxPoint x="30" y="480" as="sourcePoint" />
            <Array as="points">
              <mxPoint x="60" y="480" />
            </Array>
          </mxGeometry>
        </mxCell>
        <mxCell id="AAiMZ7HsClvzDmgo-bh8-3" value="InformaciónControl" style="shape=umlLifeline;participant=umlControl;perimeter=lifelinePerimeter;whiteSpace=wrap;html=1;container=1;collapsible=0;recursiveResize=0;verticalAlign=top;spacingTop=36;outlineConnect=0;" vertex="1" parent="nJ53OVy1p7nozCU9UD81-1">
          <mxGeometry x="389" y="40" width="40" height="600" as="geometry" />
        </mxCell>
        <mxCell id="AAiMZ7HsClvzDmgo-bh8-4" value="" style="html=1;points=[];perimeter=orthogonalPerimeter;" vertex="1" parent="AAiMZ7HsClvzDmgo-bh8-3">
          <mxGeometry x="15" y="100" width="10" height="80" as="geometry" />
        </mxCell>
        <mxCell id="AAiMZ7HsClvzDmgo-bh8-6" value="Paralelo" style="shape=umlLifeline;participant=umlEntity;perimeter=lifelinePerimeter;whiteSpace=wrap;html=1;container=1;collapsible=0;recursiveResize=0;verticalAlign=top;spacingTop=36;outlineConnect=0;" vertex="1" parent="nJ53OVy1p7nozCU9UD81-1">
          <mxGeometry x="639" y="40" width="40" height="600" as="geometry" />
        </mxCell>
        <mxCell id="AAiMZ7HsClvzDmgo-bh8-7" value="" style="html=1;points=[];perimeter=orthogonalPerimeter;" vertex="1" parent="AAiMZ7HsClvzDmgo-bh8-6">
          <mxGeometry x="15" y="120" width="10" height="110" as="geometry" />
        </mxCell>
        <mxCell id="YHUmRVJxzar4B9wW_FxS-4" value="" style="html=1;points=[];perimeter=orthogonalPerimeter;" vertex="1" parent="AAiMZ7HsClvzDmgo-bh8-6">
          <mxGeometry x="15" y="370" width="10" height="70" as="geometry" />
        </mxCell>
        <mxCell id="AAiMZ7HsClvzDmgo-bh8-9" value="" style="html=1;points=[];perimeter=orthogonalPerimeter;" vertex="1" parent="nJ53OVy1p7nozCU9UD81-1">
          <mxGeometry x="84" y="120" width="10" height="480" as="geometry" />
        </mxCell>
        <mxCell id="AAiMZ7HsClvzDmgo-bh8-10" value="Seleccionar Paralelo" style="html=1;verticalAlign=bottom;endArrow=block;exitX=1.041;exitY=0.026;exitDx=0;exitDy=0;exitPerimeter=0;entryX=-0.14;entryY=-0.012;entryDx=0;entryDy=0;entryPerimeter=0;" edge="1" parent="nJ53OVy1p7nozCU9UD81-1" source="AAiMZ7HsClvzDmgo-bh8-9" target="AAiMZ7HsClvzDmgo-bh8-2">
          <mxGeometry width="80" relative="1" as="geometry">
            <mxPoint x="139" y="140" as="sourcePoint" />
            <mxPoint x="219" y="140" as="targetPoint" />
          </mxGeometry>
        </mxCell>
        <mxCell id="AAiMZ7HsClvzDmgo-bh8-11" value="Solicitar Paralelo" style="html=1;verticalAlign=bottom;endArrow=block;exitX=1.133;exitY=0.333;exitDx=0;exitDy=0;exitPerimeter=0;entryX=0;entryY=0;entryDx=0;entryDy=0;entryPerimeter=0;" edge="1" parent="nJ53OVy1p7nozCU9UD81-1" source="AAiMZ7HsClvzDmgo-bh8-2" target="AAiMZ7HsClvzDmgo-bh8-4">
          <mxGeometry width="80" relative="1" as="geometry">
            <mxPoint x="279" y="140" as="sourcePoint" />
            <mxPoint x="389" y="140" as="targetPoint" />
          </mxGeometry>
        </mxCell>
        <mxCell id="AAiMZ7HsClvzDmgo-bh8-12" value="Solicitar Paralelo" style="html=1;verticalAlign=bottom;endArrow=block;exitX=0.967;exitY=0.246;exitDx=0;exitDy=0;exitPerimeter=0;entryX=-0.1;entryY=0;entryDx=0;entryDy=0;entryPerimeter=0;" edge="1" parent="nJ53OVy1p7nozCU9UD81-1" source="AAiMZ7HsClvzDmgo-bh8-4" target="AAiMZ7HsClvzDmgo-bh8-7">
          <mxGeometry width="80" relative="1" as="geometry">
            <mxPoint x="419" y="160" as="sourcePoint" />
            <mxPoint x="499" y="160" as="targetPoint" />
          </mxGeometry>
        </mxCell>
        <mxCell id="AAiMZ7HsClvzDmgo-bh8-13" value="" style="html=1;points=[];perimeter=orthogonalPerimeter;" vertex="1" parent="nJ53OVy1p7nozCU9UD81-1">
          <mxGeometry x="659" y="200" width="10" height="30" as="geometry" />
        </mxCell>
        <mxCell id="AAiMZ7HsClvzDmgo-bh8-14" value="Buscar &lt;br&gt;Paralelo" style="edgeStyle=orthogonalEdgeStyle;html=1;align=left;spacingLeft=2;endArrow=block;rounded=0;entryX=1;entryY=0;" edge="1" parent="nJ53OVy1p7nozCU9UD81-1" target="AAiMZ7HsClvzDmgo-bh8-13">
          <mxGeometry relative="1" as="geometry">
            <mxPoint x="664" y="180" as="sourcePoint" />
            <Array as="points">
              <mxPoint x="694" y="180" />
            </Array>
          </mxGeometry>
        </mxCell>
        <mxCell id="AAiMZ7HsClvzDmgo-bh8-15" value="Paralelo Encontrado" style="html=1;verticalAlign=bottom;endArrow=open;dashed=1;endSize=8;exitX=-0.033;exitY=0.909;exitDx=0;exitDy=0;exitPerimeter=0;entryX=0.748;entryY=-0.003;entryDx=0;entryDy=0;entryPerimeter=0;" edge="1" parent="nJ53OVy1p7nozCU9UD81-1" source="AAiMZ7HsClvzDmgo-bh8-7" target="AAiMZ7HsClvzDmgo-bh8-17">
          <mxGeometry relative="1" as="geometry">
            <mxPoint x="529" y="260" as="sourcePoint" />
            <mxPoint x="544" y="260.24" as="targetPoint" />
          </mxGeometry>
        </mxCell>
        <mxCell id="AAiMZ7HsClvzDmgo-bh8-16" value="FormularioParalelo" style="shape=umlLifeline;participant=umlBoundary;perimeter=lifelinePerimeter;whiteSpace=wrap;html=1;container=1;collapsible=0;recursiveResize=0;verticalAlign=top;spacingTop=36;outlineConnect=0;" vertex="1" parent="nJ53OVy1p7nozCU9UD81-1">
          <mxGeometry x="509" y="40" width="50" height="600" as="geometry" />
        </mxCell>
        <mxCell id="AAiMZ7HsClvzDmgo-bh8-17" value="" style="html=1;points=[];perimeter=orthogonalPerimeter;" vertex="1" parent="AAiMZ7HsClvzDmgo-bh8-16">
          <mxGeometry x="20" y="220" width="10" height="130" as="geometry" />
        </mxCell>
        <mxCell id="AAiMZ7HsClvzDmgo-bh8-18" value="Ingresar nuevos datos" style="html=1;verticalAlign=bottom;endArrow=block;exitX=0.957;exitY=0.334;exitDx=0;exitDy=0;exitPerimeter=0;" edge="1" parent="nJ53OVy1p7nozCU9UD81-1" source="AAiMZ7HsClvzDmgo-bh8-9">
          <mxGeometry width="80" relative="1" as="geometry">
            <mxPoint x="109" y="281" as="sourcePoint" />
            <mxPoint x="527" y="280" as="targetPoint" />
          </mxGeometry>
        </mxCell>
        <mxCell id="AAiMZ7HsClvzDmgo-bh8-24" value="" style="html=1;points=[];perimeter=orthogonalPerimeter;fontFamily=Helvetica;fontSize=12;fontColor=#000000;align=center;strokeColor=#000000;fillColor=#ffffff;" vertex="1" parent="nJ53OVy1p7nozCU9UD81-1">
          <mxGeometry x="404" y="320" width="10" height="100" as="geometry" />
        </mxCell>
        <mxCell id="AAiMZ7HsClvzDmgo-bh8-34" value="enviar información" style="html=1;verticalAlign=bottom;endArrow=block;entryX=1.2;entryY=0;entryDx=0;entryDy=0;entryPerimeter=0;exitX=-0.343;exitY=0.459;exitDx=0;exitDy=0;exitPerimeter=0;" edge="1" parent="nJ53OVy1p7nozCU9UD81-1" source="AAiMZ7HsClvzDmgo-bh8-17" target="AAiMZ7HsClvzDmgo-bh8-24">
          <mxGeometry width="80" relative="1" as="geometry">
            <mxPoint x="449" y="330" as="sourcePoint" />
            <mxPoint x="529" y="330" as="targetPoint" />
          </mxGeometry>
        </mxCell>
        <mxCell id="YHUmRVJxzar4B9wW_FxS-2" value="" style="html=1;points=[];perimeter=orthogonalPerimeter;" vertex="1" parent="nJ53OVy1p7nozCU9UD81-1">
          <mxGeometry x="409" y="360" width="10" height="40" as="geometry" />
        </mxCell>
        <mxCell id="YHUmRVJxzar4B9wW_FxS-3" value="validar&lt;br&gt;datos" style="edgeStyle=orthogonalEdgeStyle;html=1;align=left;spacingLeft=2;endArrow=block;rounded=0;entryX=1;entryY=0;" edge="1" target="YHUmRVJxzar4B9wW_FxS-2" parent="nJ53OVy1p7nozCU9UD81-1">
          <mxGeometry relative="1" as="geometry">
            <mxPoint x="414" y="340" as="sourcePoint" />
            <Array as="points">
              <mxPoint x="444" y="340" />
            </Array>
          </mxGeometry>
        </mxCell>
        <mxCell id="YHUmRVJxzar4B9wW_FxS-6" value="registrar Paralelo" style="html=1;verticalAlign=bottom;endArrow=block;exitX=0.957;exitY=0.9;exitDx=0;exitDy=0;exitPerimeter=0;entryX=0.071;entryY=-0.007;entryDx=0;entryDy=0;entryPerimeter=0;" edge="1" parent="nJ53OVy1p7nozCU9UD81-1" source="AAiMZ7HsClvzDmgo-bh8-24" target="YHUmRVJxzar4B9wW_FxS-4">
          <mxGeometry width="80" relative="1" as="geometry">
            <mxPoint x="459" y="410" as="sourcePoint" />
            <mxPoint x="539" y="410" as="targetPoint" />
          </mxGeometry>
        </mxCell>
        <mxCell id="E0xAuFwcv_X-9KTTe3tG-0" value="Confirmar registro" style="html=1;verticalAlign=bottom;endArrow=open;dashed=1;endSize=8;exitX=-0.157;exitY=0.833;exitDx=0;exitDy=0;exitPerimeter=0;entryX=0.529;entryY=0.715;entryDx=0;entryDy=0;entryPerimeter=0;" edge="1" parent="nJ53OVy1p7nozCU9UD81-1" source="YHUmRVJxzar4B9wW_FxS-4" target="AAiMZ7HsClvzDmgo-bh8-3">
          <mxGeometry relative="1" as="geometry">
            <mxPoint x="639" y="470" as="sourcePoint" />
            <mxPoint x="559" y="470" as="targetPoint" />
          </mxGeometry>
        </mxCell>
        <mxCell id="E0xAuFwcv_X-9KTTe3tG-1" value="confirmar registro" style="html=1;verticalAlign=bottom;endArrow=open;dashed=1;endSize=8;entryX=0.474;entryY=0.75;entryDx=0;entryDy=0;entryPerimeter=0;" edge="1" parent="nJ53OVy1p7nozCU9UD81-1" source="AAiMZ7HsClvzDmgo-bh8-3" target="AAiMZ7HsClvzDmgo-bh8-1">
          <mxGeometry relative="1" as="geometry">
            <mxPoint x="399" y="490" as="sourcePoint" />
            <mxPoint x="319" y="490" as="targetPoint" />
          </mxGeometry>
        </mxCell>
        <mxCell id="E0xAuFwcv_X-9KTTe3tG-6" value="presentar paralelo" style="html=1;verticalAlign=bottom;endArrow=open;dashed=1;endSize=8;exitX=-0.143;exitY=0.868;exitDx=0;exitDy=0;exitPerimeter=0;entryX=1.5;entryY=0.938;entryDx=0;entryDy=0;entryPerimeter=0;" edge="1" parent="nJ53OVy1p7nozCU9UD81-1" source="E0xAuFwcv_X-9KTTe3tG-2" target="AAiMZ7HsClvzDmgo-bh8-9">
          <mxGeometry relative="1" as="geometry">
            <mxPoint x="249" y="570" as="sourcePoint" />
            <mxPoint x="169" y="570" as="targetPoint" />
          </mxGeometry>
        </mxCell>
      </root>
    </mxGraphModel>
  </diagram>
  <diagram id="VQcE3VBWN9XW0fEriyYC" name="Page-5">
    <mxGraphModel dx="737" dy="312" grid="1" gridSize="10" guides="1" tooltips="1" connect="1" arrows="1" fold="1" page="1" pageScale="1" pageWidth="827" pageHeight="1169" math="0" shadow="0">
      <root>
        <mxCell id="BLCkSAi_GMQiAxeUaNkW-0" />
        <mxCell id="BLCkSAi_GMQiAxeUaNkW-1" parent="BLCkSAi_GMQiAxeUaNkW-0" />
        <mxCell id="VfR4rp51VS3xBffX9OCJ-0" value="Docente" style="shape=umlLifeline;participant=umlActor;perimeter=lifelinePerimeter;whiteSpace=wrap;html=1;container=1;collapsible=0;recursiveResize=0;verticalAlign=top;spacingTop=36;outlineConnect=0;" vertex="1" parent="BLCkSAi_GMQiAxeUaNkW-1">
          <mxGeometry x="80" y="40" width="20" height="480" as="geometry" />
        </mxCell>
        <mxCell id="VfR4rp51VS3xBffX9OCJ-5" value="" style="html=1;points=[];perimeter=orthogonalPerimeter;" vertex="1" parent="VfR4rp51VS3xBffX9OCJ-0">
          <mxGeometry x="5" y="80" width="10" height="390" as="geometry" />
        </mxCell>
        <mxCell id="VfR4rp51VS3xBffX9OCJ-1" value="FormularioTarea" style="shape=umlLifeline;participant=umlBoundary;perimeter=lifelinePerimeter;whiteSpace=wrap;html=1;container=1;collapsible=0;recursiveResize=0;verticalAlign=top;spacingTop=36;outlineConnect=0;" vertex="1" parent="BLCkSAi_GMQiAxeUaNkW-1">
          <mxGeometry x="410" y="40" width="50" height="480" as="geometry" />
        </mxCell>
        <mxCell id="8V2tiRvtL5GbkmMrpi_z-1" value="" style="html=1;points=[];perimeter=orthogonalPerimeter;" vertex="1" parent="VfR4rp51VS3xBffX9OCJ-1">
          <mxGeometry x="20" y="160" width="10" height="80" as="geometry" />
        </mxCell>
        <mxCell id="VfR4rp51VS3xBffX9OCJ-2" value="ListaTareas" style="shape=umlLifeline;participant=umlBoundary;perimeter=lifelinePerimeter;whiteSpace=wrap;html=1;container=1;collapsible=0;recursiveResize=0;verticalAlign=top;spacingTop=36;outlineConnect=0;" vertex="1" parent="BLCkSAi_GMQiAxeUaNkW-1">
          <mxGeometry x="260" y="40" width="50" height="480" as="geometry" />
        </mxCell>
        <mxCell id="TftYvTxtTHvvlq1kXMTU-1" value="" style="html=1;points=[];perimeter=orthogonalPerimeter;" vertex="1" parent="VfR4rp51VS3xBffX9OCJ-2">
          <mxGeometry x="20" y="100" width="10" height="40" as="geometry" />
        </mxCell>
        <mxCell id="A3IhUzLw23y9qFCvPtfg-0" value="" style="html=1;points=[];perimeter=orthogonalPerimeter;" vertex="1" parent="VfR4rp51VS3xBffX9OCJ-2">
          <mxGeometry x="20" y="430" width="10" height="40" as="geometry" />
        </mxCell>
        <mxCell id="A3IhUzLw23y9qFCvPtfg-1" value="actualizar&lt;br&gt;lista" style="edgeStyle=orthogonalEdgeStyle;html=1;align=left;spacingLeft=2;endArrow=block;rounded=0;entryX=1;entryY=0;" edge="1" target="A3IhUzLw23y9qFCvPtfg-0" parent="VfR4rp51VS3xBffX9OCJ-2">
          <mxGeometry relative="1" as="geometry">
            <mxPoint x="25" y="410" as="sourcePoint" />
            <Array as="points">
              <mxPoint x="55" y="410" />
            </Array>
          </mxGeometry>
        </mxCell>
        <mxCell id="VfR4rp51VS3xBffX9OCJ-3" value="Tarea" style="shape=umlLifeline;participant=umlEntity;perimeter=lifelinePerimeter;whiteSpace=wrap;html=1;container=1;collapsible=0;recursiveResize=0;verticalAlign=top;spacingTop=36;outlineConnect=0;" vertex="1" parent="BLCkSAi_GMQiAxeUaNkW-1">
          <mxGeometry x="720" y="40" width="40" height="480" as="geometry" />
        </mxCell>
        <mxCell id="imr7gJhKOyEn_Om88ViK-4" value="" style="html=1;points=[];perimeter=orthogonalPerimeter;" vertex="1" parent="VfR4rp51VS3xBffX9OCJ-3">
          <mxGeometry x="15" y="320" width="10" height="80" as="geometry" />
        </mxCell>
        <mxCell id="VfR4rp51VS3xBffX9OCJ-4" value="InformacionControl" style="shape=umlLifeline;participant=umlControl;perimeter=lifelinePerimeter;whiteSpace=wrap;html=1;container=1;collapsible=0;recursiveResize=0;verticalAlign=top;spacingTop=36;outlineConnect=0;" vertex="1" parent="BLCkSAi_GMQiAxeUaNkW-1">
          <mxGeometry x="560" y="40" width="40" height="480" as="geometry" />
        </mxCell>
        <mxCell id="imr7gJhKOyEn_Om88ViK-1" value="" style="html=1;points=[];perimeter=orthogonalPerimeter;" vertex="1" parent="VfR4rp51VS3xBffX9OCJ-4">
          <mxGeometry x="15" y="220" width="10" height="130" as="geometry" />
        </mxCell>
        <mxCell id="imr7gJhKOyEn_Om88ViK-2" value="" style="html=1;points=[];perimeter=orthogonalPerimeter;" vertex="1" parent="VfR4rp51VS3xBffX9OCJ-4">
          <mxGeometry x="20" y="264" width="10" height="40" as="geometry" />
        </mxCell>
        <mxCell id="imr7gJhKOyEn_Om88ViK-3" value="validar&lt;br&gt;datos" style="edgeStyle=orthogonalEdgeStyle;html=1;align=left;spacingLeft=2;endArrow=block;rounded=0;entryX=1;entryY=0;" edge="1" target="imr7gJhKOyEn_Om88ViK-2" parent="VfR4rp51VS3xBffX9OCJ-4">
          <mxGeometry relative="1" as="geometry">
            <mxPoint x="25" y="244" as="sourcePoint" />
            <Array as="points">
              <mxPoint x="55" y="244" />
            </Array>
          </mxGeometry>
        </mxCell>
        <mxCell id="TftYvTxtTHvvlq1kXMTU-0" value="Seleccionar botón &quot;NuevaTarea&quot;" style="html=1;verticalAlign=bottom;endArrow=block;entryX=-0.09;entryY=0.003;entryDx=0;entryDy=0;entryPerimeter=0;" edge="1" parent="BLCkSAi_GMQiAxeUaNkW-1" target="TftYvTxtTHvvlq1kXMTU-1">
          <mxGeometry width="80" relative="1" as="geometry">
            <mxPoint x="94" y="140" as="sourcePoint" />
            <mxPoint x="200" y="140" as="targetPoint" />
          </mxGeometry>
        </mxCell>
        <mxCell id="8V2tiRvtL5GbkmMrpi_z-0" value="presentar Formulario" style="html=1;verticalAlign=bottom;endArrow=block;exitX=-0.138;exitY=0.744;exitDx=0;exitDy=0;exitPerimeter=0;entryX=1.04;entryY=0.128;entryDx=0;entryDy=0;entryPerimeter=0;" edge="1" parent="BLCkSAi_GMQiAxeUaNkW-1" source="TftYvTxtTHvvlq1kXMTU-1" target="VfR4rp51VS3xBffX9OCJ-5">
          <mxGeometry width="80" relative="1" as="geometry">
            <mxPoint x="150" y="189.76" as="sourcePoint" />
            <mxPoint x="230" y="189.76" as="targetPoint" />
          </mxGeometry>
        </mxCell>
        <mxCell id="8V2tiRvtL5GbkmMrpi_z-2" value="Ingresar datos" style="html=1;verticalAlign=bottom;endArrow=block;exitX=1;exitY=0.205;exitDx=0;exitDy=0;exitPerimeter=0;entryX=-0.229;entryY=-0.003;entryDx=0;entryDy=0;entryPerimeter=0;" edge="1" parent="BLCkSAi_GMQiAxeUaNkW-1" source="VfR4rp51VS3xBffX9OCJ-5" target="8V2tiRvtL5GbkmMrpi_z-1">
          <mxGeometry width="80" relative="1" as="geometry">
            <mxPoint x="180" y="200" as="sourcePoint" />
            <mxPoint x="260" y="200" as="targetPoint" />
          </mxGeometry>
        </mxCell>
        <mxCell id="imr7gJhKOyEn_Om88ViK-0" value="enviar información" style="html=1;verticalAlign=bottom;endArrow=block;exitX=1.093;exitY=0.729;exitDx=0;exitDy=0;exitPerimeter=0;entryX=0.25;entryY=-0.004;entryDx=0;entryDy=0;entryPerimeter=0;" edge="1" parent="BLCkSAi_GMQiAxeUaNkW-1" source="8V2tiRvtL5GbkmMrpi_z-1" target="imr7gJhKOyEn_Om88ViK-1">
          <mxGeometry width="80" relative="1" as="geometry">
            <mxPoint x="480" y="210" as="sourcePoint" />
            <mxPoint x="560" y="210" as="targetPoint" />
          </mxGeometry>
        </mxCell>
        <mxCell id="imr7gJhKOyEn_Om88ViK-5" value="registrar Datos" style="html=1;verticalAlign=bottom;endArrow=block;exitX=1.5;exitY=0.769;exitDx=0;exitDy=0;exitPerimeter=0;entryX=0.167;entryY=-0.004;entryDx=0;entryDy=0;entryPerimeter=0;" edge="1" parent="BLCkSAi_GMQiAxeUaNkW-1" source="imr7gJhKOyEn_Om88ViK-1" target="imr7gJhKOyEn_Om88ViK-4">
          <mxGeometry width="80" relative="1" as="geometry">
            <mxPoint x="600" y="360" as="sourcePoint" />
            <mxPoint x="680" y="360" as="targetPoint" />
          </mxGeometry>
        </mxCell>
        <mxCell id="QqouDr_o6mJ3qGMoQ-kn-0" value="confirmar registro" style="html=1;verticalAlign=bottom;endArrow=open;dashed=1;endSize=8;exitX=-0.12;exitY=0.868;exitDx=0;exitDy=0;exitPerimeter=0;" edge="1" parent="BLCkSAi_GMQiAxeUaNkW-1" source="imr7gJhKOyEn_Om88ViK-4">
          <mxGeometry relative="1" as="geometry">
            <mxPoint x="700" y="430" as="sourcePoint" />
            <mxPoint x="579.810344827586" y="429.43999999999994" as="targetPoint" />
          </mxGeometry>
        </mxCell>
        <mxCell id="mJ0QtvrdiEl31icJFyup-0" value="confirmar registro" style="html=1;verticalAlign=bottom;endArrow=open;dashed=1;endSize=8;" edge="1" parent="BLCkSAi_GMQiAxeUaNkW-1" source="VfR4rp51VS3xBffX9OCJ-4" target="VfR4rp51VS3xBffX9OCJ-2">
          <mxGeometry relative="1" as="geometry">
            <mxPoint x="573.6999999999999" y="399.99999999999994" as="sourcePoint" />
            <mxPoint x="440" y="400" as="targetPoint" />
            <Array as="points">
              <mxPoint x="480" y="440" />
              <mxPoint x="380" y="440" />
            </Array>
          </mxGeometry>
        </mxCell>
        <mxCell id="A3IhUzLw23y9qFCvPtfg-3" value="presentar tarea" style="html=1;verticalAlign=bottom;endArrow=block;exitX=-0.18;exitY=0.755;exitDx=0;exitDy=0;exitPerimeter=0;" edge="1" parent="BLCkSAi_GMQiAxeUaNkW-1" source="A3IhUzLw23y9qFCvPtfg-0">
          <mxGeometry width="80" relative="1" as="geometry">
            <mxPoint x="180" y="500" as="sourcePoint" />
            <mxPoint x="94.99999999999989" y="500.19999999999993" as="targetPoint" />
          </mxGeometry>
        </mxCell>
        <mxCell id="dofom4I8ko9AyIQukX-l-0" value="presionar &quot;Guardar&quot;" style="html=1;verticalAlign=bottom;endArrow=block;entryX=-0.079;entryY=0.626;entryDx=0;entryDy=0;entryPerimeter=0;" edge="1" parent="BLCkSAi_GMQiAxeUaNkW-1" target="8V2tiRvtL5GbkmMrpi_z-1">
          <mxGeometry width="80" relative="1" as="geometry">
            <mxPoint x="95" y="250" as="sourcePoint" />
            <mxPoint x="190" y="250" as="targetPoint" />
          </mxGeometry>
        </mxCell>
        <mxCell id="dofom4I8ko9AyIQukX-l-2" value="" style="html=1;points=[];perimeter=orthogonalPerimeter;" vertex="1" parent="BLCkSAi_GMQiAxeUaNkW-1">
          <mxGeometry x="434" y="230" width="10" height="10" as="geometry" />
        </mxCell>
        <mxCell id="dofom4I8ko9AyIQukX-l-3" value="selecionar tipo" style="edgeStyle=orthogonalEdgeStyle;html=1;align=left;spacingLeft=2;endArrow=block;rounded=0;entryX=1;entryY=0;exitX=1.231;exitY=0.152;exitDx=0;exitDy=0;exitPerimeter=0;" edge="1" target="dofom4I8ko9AyIQukX-l-2" parent="BLCkSAi_GMQiAxeUaNkW-1" source="8V2tiRvtL5GbkmMrpi_z-1">
          <mxGeometry relative="1" as="geometry">
            <mxPoint x="500" y="170" as="sourcePoint" />
            <Array as="points">
              <mxPoint x="470" y="212" />
              <mxPoint x="470" y="230" />
            </Array>
          </mxGeometry>
        </mxCell>
      </root>
    </mxGraphModel>
  </diagram>
</mxfile>
